<svg width="1920" height="1080" viewBox="0 0 1920 1080" fill="none" xmlns="http://www.w3.org/2000/svg">
  <g opacity="0.18">
    <path d="M0 553H186L226 493L270 613L321 365L377 708L435 522L478 584L538 264L603 804L674 446L724 556L781 379L840 691L892 518L938 570L989 316L1051 760L1109 474L1166 626L1216 395L1271 697L1323 519L1370 568L1421 281L1482 796L1542 458L1593 606L1640 428L1702 673L1751 523L1798 564L1854 449H1920" stroke="#1B67D8" stroke-width="5" stroke-linejoin="round"/>
    <path d="M0 554H210L256 532L305 575L353 492L405 621L456 538L515 566L568 454L628 646L678 524L733 570L787 480L842 632L898 535L951 575L1009 461L1066 650L1125 510L1182 589L1239 471L1298 638L1352 530L1410 578L1463 455L1525 646L1578 510L1638 588L1690 486L1746 630L1801 526L1859 568L1920 543" stroke="#70B7FF" stroke-width="2" stroke-linejoin="round"/>
  </g>
  <g opacity="0.08">
    <path d="M0 331H287L329 293L366 366L415 218L470 430L526 317L574 354L628 159L688 534L752 269L810 379L862 234L925 465L980 322L1041 369L1091 188L1156 512L1212 278L1275 410L1331 243L1394 461L1451 309L1512 373L1565 173L1625 532L1686 270L1744 405L1805 242L1863 456H1920" stroke="#071B36" stroke-width="3"/>
    <path d="M0 780H227L273 746L315 813L366 660L424 891L478 746L537 812L590 596L648 973L709 698L771 852L821 633L882 920L938 751L1000 810L1050 622L1110 944L1168 712L1228 835L1281 670L1338 894L1394 744L1455 808L1514 610L1572 955L1635 700L1692 844L1754 664L1812 903H1920" stroke="#071B36" stroke-width="3"/>
  </g>
</svg>
